<svg xmlns="http://www.w3.org/2000/svg" width="2080" height="2080" viewBox="-16 -16 2080 2080" n="7" stroke-linecap="round" stroke-linejoin="round" stroke-width="4">
	<rect x="-16" y="-16" width="2080" height="2080" fill="#FFFFFFFF" opacity="1"/>
	<line x1="0.0" y1="0.0" x2="2048.0" y2="0.0" stroke="#000000FF" />
	<line x1="0.0" y1="32.0" x2="2048.0" y2="32.0" stroke="#000000FF" />
	<line x1="0.0" y1="64.0" x2="2048.0" y2="64.0" stroke="#000000FF" />
	<line x1="0.0" y1="96.0" x2="2048.0" y2="96.0" stroke="#000000FF" />
	<line x1="0.0" y1="128.0" x2="2048.0" y2="128.0" stroke="#000000FF" />
	<line x1="0.0" y1="160.0" x2="2048.0" y2="160.0" stroke="#000000FF" />
	<line x1="0.0" y1="192.0" x2="2048.0" y2="192.0" stroke="#000000FF" />
	<line x1="0.0" y1="224.0" x2="2048.0" y2="224.0" stroke="#000000FF" />
	<line x1="0.0" y1="256.0" x2="2048.0" y2="256.0" stroke="#000000FF" />
	<line x1="0.0" y1="288.0" x2="2048.0" y2="288.0" stroke="#000000FF" />
	<line x1="0.0" y1="320.0" x2="2048.0" y2="320.0" stroke="#000000FF" />
	<line x1="0.0" y1="352.0" x2="2048.0" y2="352.0" stroke="#000000FF" />
	<line x1="0.0" y1="384.0" x2="2048.0" y2="384.0" stroke="#000000FF" />
	<line x1="0.0" y1="416.0" x2="2048.0" y2="416.0" stroke="#000000FF" />
	<line x1="0.0" y1="448.0" x2="2048.0" y2="448.0" stroke="#000000FF" />
	<line x1="0.0" y1="480.0" x2="2048.0" y2="480.0" stroke="#000000FF" />
	<line x1="0.0" y1="512.0" x2="2048.0" y2="512.0" stroke="#000000FF" />
	<line x1="0.0" y1="544.0" x2="2048.0" y2="544.0" stroke="#000000FF" />
	<line x1="0.0" y1="576.0" x2="2048.0" y2="576.0" stroke="#000000FF" />
	<line x1="0.0" y1="608.0" x2="2048.0" y2="608.0" stroke="#000000FF" />
	<line x1="0.0" y1="640.0" x2="2048.0" y2="640.0" stroke="#000000FF" />
	<line x1="0.0" y1="672.0" x2="2048.0" y2="672.0" stroke="#000000FF" />
	<line x1="0.0" y1="704.0" x2="2048.0" y2="704.0" stroke="#000000FF" />
	<line x1="0.0" y1="736.0" x2="2048.0" y2="736.0" stroke="#000000FF" />
	<line x1="0.0" y1="768.0" x2="2048.0" y2="768.0" stroke="#000000FF" />
	<line x1="0.0" y1="800.0" x2="2048.0" y2="800.0" stroke="#000000FF" />
	<line x1="0.0" y1="832.0" x2="2048.0" y2="832.0" stroke="#000000FF" />
	<line x1="0.0" y1="864.0" x2="2048.0" y2="864.0" stroke="#000000FF" />
	<line x1="0.0" y1="896.0" x2="2048.0" y2="896.0" stroke="#000000FF" />
	<line x1="0.0" y1="928.0" x2="2048.0" y2="928.0" stroke="#000000FF" />
	<line x1="0.0" y1="960.0" x2="2048.0" y2="960.0" stroke="#000000FF" />
	<line x1="0.0" y1="992.0" x2="2048.0" y2="992.0" stroke="#000000FF" />
	<line x1="0.0" y1="1024.0" x2="2048.0" y2="1024.0" stroke="#000000FF" />
	<line x1="0.0" y1="1056.0" x2="2048.0" y2="1056.0" stroke="#000000FF" />
	<line x1="0.0" y1="1088.0" x2="2048.0" y2="1088.0" stroke="#000000FF" />
	<line x1="0.0" y1="1120.0" x2="2048.0" y2="1120.0" stroke="#000000FF" />
	<line x1="0.0" y1="1152.0" x2="2048.0" y2="1152.0" stroke="#000000FF" />
	<line x1="0.0" y1="1184.0" x2="2048.0" y2="1184.0" stroke="#000000FF" />
	<line x1="0.0" y1="1216.0" x2="2048.0" y2="1216.0" stroke="#000000FF" />
	<line x1="0.0" y1="1248.0" x2="2048.0" y2="1248.0" stroke="#000000FF" />
	<line x1="0.0" y1="1280.0" x2="2048.0" y2="1280.0" stroke="#000000FF" />
	<line x1="0.0" y1="1312.0" x2="2048.0" y2="1312.0" stroke="#000000FF" />
	<line x1="0.0" y1="1344.0" x2="2048.0" y2="1344.0" stroke="#000000FF" />
	<line x1="0.0" y1="1376.0" x2="2048.0" y2="1376.0" stroke="#000000FF" />
	<line x1="0.0" y1="1408.0" x2="2048.0" y2="1408.0" stroke="#000000FF" />
	<line x1="0.0" y1="1440.0" x2="2048.0" y2="1440.0" stroke="#000000FF" />
	<line x1="0.0" y1="1472.0" x2="2048.0" y2="1472.0" stroke="#000000FF" />
	<line x1="0.0" y1="1504.0" x2="2048.0" y2="1504.0" stroke="#000000FF" />
	<line x1="0.0" y1="1536.0" x2="2048.0" y2="1536.0" stroke="#000000FF" />
	<line x1="0.0" y1="1568.0" x2="2048.0" y2="1568.0" stroke="#000000FF" />
	<line x1="0.0" y1="1600.0" x2="2048.0" y2="1600.0" stroke="#000000FF" />
	<line x1="0.0" y1="1632.0" x2="2048.0" y2="1632.0" stroke="#000000FF" />
	<line x1="0.0" y1="1664.0" x2="2048.0" y2="1664.0" stroke="#000000FF" />
	<line x1="0.0" y1="1696.0" x2="2048.0" y2="1696.0" stroke="#000000FF" />
	<line x1="0.0" y1="1728.0" x2="2048.0" y2="1728.0" stroke="#000000FF" />
	<line x1="0.0" y1="1760.0" x2="2048.0" y2="1760.0" stroke="#000000FF" />
	<line x1="0.0" y1="1792.0" x2="2048.0" y2="1792.0" stroke="#000000FF" />
	<line x1="0.0" y1="1824.0" x2="2048.0" y2="1824.0" stroke="#000000FF" />
	<line x1="0.0" y1="1856.0" x2="2048.0" y2="1856.0" stroke="#000000FF" />
	<line x1="0.0" y1="1888.0" x2="2048.0" y2="1888.0" stroke="#000000FF" />
	<line x1="0.0" y1="1920.0" x2="2048.0" y2="1920.0" stroke="#000000FF" />
	<line x1="0.0" y1="1952.0" x2="2048.0" y2="1952.0" stroke="#000000FF" />
	<line x1="0.0" y1="1984.0" x2="2048.0" y2="1984.0" stroke="#000000FF" />
	<line x1="0.0" y1="2016.0" x2="2048.0" y2="2016.0" stroke="#000000FF" />
	<line x1="0.0" y1="2048.0" x2="2048.0" y2="2048.0" stroke="#000000FF" />
	<line x1="0.0" y1="0.0" x2="0.0" y2="2048.0" stroke="#000000FF" />
	<line x1="32.0" y1="0.0" x2="32.0" y2="2048.0" stroke="#000000FF" />
	<line x1="64.0" y1="0.0" x2="64.0" y2="2048.0" stroke="#000000FF" />
	<line x1="96.0" y1="0.0" x2="96.0" y2="2048.0" stroke="#000000FF" />
	<line x1="128.0" y1="0.0" x2="128.0" y2="2048.0" stroke="#000000FF" />
	<line x1="160.0" y1="0.0" x2="160.0" y2="2048.0" stroke="#000000FF" />
	<line x1="192.0" y1="0.0" x2="192.0" y2="2048.0" stroke="#000000FF" />
	<line x1="224.0" y1="0.0" x2="224.0" y2="2048.0" stroke="#000000FF" />
	<line x1="256.0" y1="0.0" x2="256.0" y2="2048.0" stroke="#000000FF" />
	<line x1="288.0" y1="0.0" x2="288.0" y2="2048.0" stroke="#000000FF" />
	<line x1="320.0" y1="0.0" x2="320.0" y2="2048.0" stroke="#000000FF" />
	<line x1="352.0" y1="0.0" x2="352.0" y2="2048.0" stroke="#000000FF" />
	<line x1="384.0" y1="0.0" x2="384.0" y2="2048.0" stroke="#000000FF" />
	<line x1="416.0" y1="0.0" x2="416.0" y2="2048.0" stroke="#000000FF" />
	<line x1="448.0" y1="0.0" x2="448.0" y2="2048.0" stroke="#000000FF" />
	<line x1="480.0" y1="0.0" x2="480.0" y2="2048.0" stroke="#000000FF" />
	<line x1="512.0" y1="0.0" x2="512.0" y2="2048.0" stroke="#000000FF" />
	<line x1="544.0" y1="0.0" x2="544.0" y2="2048.0" stroke="#000000FF" />
	<line x1="576.0" y1="0.0" x2="576.0" y2="2048.0" stroke="#000000FF" />
	<line x1="608.0" y1="0.0" x2="608.0" y2="2048.0" stroke="#000000FF" />
	<line x1="640.0" y1="0.0" x2="640.0" y2="2048.0" stroke="#000000FF" />
	<line x1="672.0" y1="0.0" x2="672.0" y2="2048.0" stroke="#000000FF" />
	<line x1="704.0" y1="0.0" x2="704.0" y2="2048.0" stroke="#000000FF" />
	<line x1="736.0" y1="0.0" x2="736.0" y2="2048.0" stroke="#000000FF" />
	<line x1="768.0" y1="0.0" x2="768.0" y2="2048.0" stroke="#000000FF" />
	<line x1="800.0" y1="0.0" x2="800.0" y2="2048.0" stroke="#000000FF" />
	<line x1="832.0" y1="0.0" x2="832.0" y2="2048.0" stroke="#000000FF" />
	<line x1="864.0" y1="0.0" x2="864.0" y2="2048.0" stroke="#000000FF" />
	<line x1="896.0" y1="0.0" x2="896.0" y2="2048.0" stroke="#000000FF" />
	<line x1="928.0" y1="0.0" x2="928.0" y2="2048.0" stroke="#000000FF" />
	<line x1="960.0" y1="0.0" x2="960.0" y2="2048.0" stroke="#000000FF" />
	<line x1="992.0" y1="0.0" x2="992.0" y2="2048.0" stroke="#000000FF" />
	<line x1="1024.0" y1="0.0" x2="1024.0" y2="2048.0" stroke="#000000FF" />
	<line x1="1056.0" y1="0.0" x2="1056.0" y2="2048.0" stroke="#000000FF" />
	<line x1="1088.0" y1="0.0" x2="1088.0" y2="2048.0" stroke="#000000FF" />
	<line x1="1120.0" y1="0.0" x2="1120.0" y2="2048.0" stroke="#000000FF" />
	<line x1="1152.0" y1="0.0" x2="1152.0" y2="2048.0" stroke="#000000FF" />
	<line x1="1184.0" y1="0.0" x2="1184.0" y2="2048.0" stroke="#000000FF" />
	<line x1="1216.0" y1="0.0" x2="1216.0" y2="2048.0" stroke="#000000FF" />
	<line x1="1248.0" y1="0.0" x2="1248.0" y2="2048.0" stroke="#000000FF" />
	<line x1="1280.0" y1="0.0" x2="1280.0" y2="2048.0" stroke="#000000FF" />
	<line x1="1312.0" y1="0.0" x2="1312.0" y2="2048.0" stroke="#000000FF" />
	<line x1="1344.0" y1="0.0" x2="1344.0" y2="2048.0" stroke="#000000FF" />
	<line x1="1376.0" y1="0.0" x2="1376.0" y2="2048.0" stroke="#000000FF" />
	<line x1="1408.0" y1="0.0" x2="1408.0" y2="2048.0" stroke="#000000FF" />
	<line x1="1440.0" y1="0.0" x2="1440.0" y2="2048.0" stroke="#000000FF" />
	<line x1="1472.0" y1="0.0" x2="1472.0" y2="2048.0" stroke="#000000FF" />
	<line x1="1504.0" y1="0.0" x2="1504.0" y2="2048.0" stroke="#000000FF" />
	<line x1="1536.0" y1="0.0" x2="1536.0" y2="2048.0" stroke="#000000FF" />
	<line x1="1568.0" y1="0.0" x2="1568.0" y2="2048.0" stroke="#000000FF" />
	<line x1="1600.0" y1="0.0" x2="1600.0" y2="2048.0" stroke="#000000FF" />
	<line x1="1632.0" y1="0.0" x2="1632.0" y2="2048.0" stroke="#000000FF" />
	<line x1="1664.0" y1="0.0" x2="1664.0" y2="2048.0" stroke="#000000FF" />
	<line x1="1696.0" y1="0.0" x2="1696.0" y2="2048.0" stroke="#000000FF" />
	<line x1="1728.0" y1="0.0" x2="1728.0" y2="2048.0" stroke="#000000FF" />
	<line x1="1760.0" y1="0.0" x2="1760.0" y2="2048.0" stroke="#000000FF" />
	<line x1="1792.0" y1="0.0" x2="1792.0" y2="2048.0" stroke="#000000FF" />
	<line x1="1824.0" y1="0.0" x2="1824.0" y2="2048.0" stroke="#000000FF" />
	<line x1="1856.0" y1="0.0" x2="1856.0" y2="2048.0" stroke="#000000FF" />
	<line x1="1888.0" y1="0.0" x2="1888.0" y2="2048.0" stroke="#000000FF" />
	<line x1="1920.0" y1="0.0" x2="1920.0" y2="2048.0" stroke="#000000FF" />
	<line x1="1952.0" y1="0.0" x2="1952.0" y2="2048.0" stroke="#000000FF" />
	<line x1="1984.0" y1="0.0" x2="1984.0" y2="2048.0" stroke="#000000FF" />
	<line x1="2016.0" y1="0.0" x2="2016.0" y2="2048.0" stroke="#000000FF" />
	<line x1="2048.0" y1="0.0" x2="2048.0" y2="2048.0" stroke="#000000FF" />
	<line x1="0.0" y1="0.0" x2="2048.0" y2="2048.0" stroke="#000000FF" />
	<line x1="0.0" y1="32.0" x2="2016.0" y2="2048.0" stroke="#000000FF" />
	<line x1="32.0" y1="0.0" x2="2048.0" y2="2016.0" stroke="#000000FF" />
	<line x1="0.0" y1="64.0" x2="1984.0" y2="2048.0" stroke="#000000FF" />
	<line x1="64.0" y1="0.0" x2="2048.0" y2="1984.0" stroke="#000000FF" />
	<line x1="0.0" y1="96.0" x2="1952.0" y2="2048.0" stroke="#000000FF" />
	<line x1="96.0" y1="0.0" x2="2048.0" y2="1952.0" stroke="#000000FF" />
	<line x1="0.0" y1="128.0" x2="1920.0" y2="2048.0" stroke="#000000FF" />
	<line x1="128.0" y1="0.0" x2="2048.0" y2="1920.0" stroke="#000000FF" />
	<line x1="0.0" y1="160.0" x2="1888.0" y2="2048.0" stroke="#000000FF" />
	<line x1="160.0" y1="0.0" x2="2048.0" y2="1888.0" stroke="#000000FF" />
	<line x1="0.0" y1="192.0" x2="1856.0" y2="2048.0" stroke="#000000FF" />
	<line x1="192.0" y1="0.0" x2="2048.0" y2="1856.0" stroke="#000000FF" />
	<line x1="0.0" y1="224.0" x2="1824.0" y2="2048.0" stroke="#000000FF" />
	<line x1="224.0" y1="0.0" x2="2048.0" y2="1824.0" stroke="#000000FF" />
	<line x1="0.0" y1="256.0" x2="1792.0" y2="2048.0" stroke="#000000FF" />
	<line x1="256.0" y1="0.0" x2="2048.0" y2="1792.0" stroke="#000000FF" />
	<line x1="0.0" y1="288.0" x2="1760.0" y2="2048.0" stroke="#000000FF" />
	<line x1="288.0" y1="0.0" x2="2048.0" y2="1760.0" stroke="#000000FF" />
	<line x1="0.0" y1="320.0" x2="1728.0" y2="2048.0" stroke="#000000FF" />
	<line x1="320.0" y1="0.0" x2="2048.0" y2="1728.0" stroke="#000000FF" />
	<line x1="0.0" y1="352.0" x2="1696.0" y2="2048.0" stroke="#000000FF" />
	<line x1="352.0" y1="0.0" x2="2048.0" y2="1696.0" stroke="#000000FF" />
	<line x1="0.0" y1="384.0" x2="1664.0" y2="2048.0" stroke="#000000FF" />
	<line x1="384.0" y1="0.0" x2="2048.0" y2="1664.0" stroke="#000000FF" />
	<line x1="0.0" y1="416.0" x2="1632.0" y2="2048.0" stroke="#000000FF" />
	<line x1="416.0" y1="0.0" x2="2048.0" y2="1632.0" stroke="#000000FF" />
	<line x1="0.0" y1="448.0" x2="1600.0" y2="2048.0" stroke="#000000FF" />
	<line x1="448.0" y1="0.0" x2="2048.0" y2="1600.0" stroke="#000000FF" />
	<line x1="0.0" y1="480.0" x2="1568.0" y2="2048.0" stroke="#000000FF" />
	<line x1="480.0" y1="0.0" x2="2048.0" y2="1568.0" stroke="#000000FF" />
	<line x1="0.0" y1="512.0" x2="1536.0" y2="2048.0" stroke="#000000FF" />
	<line x1="512.0" y1="0.0" x2="2048.0" y2="1536.0" stroke="#000000FF" />
	<line x1="0.0" y1="544.0" x2="1504.0" y2="2048.0" stroke="#000000FF" />
	<line x1="544.0" y1="0.0" x2="2048.0" y2="1504.0" stroke="#000000FF" />
	<line x1="0.0" y1="576.0" x2="1472.0" y2="2048.0" stroke="#000000FF" />
	<line x1="576.0" y1="0.0" x2="2048.0" y2="1472.0" stroke="#000000FF" />
	<line x1="0.0" y1="608.0" x2="1440.0" y2="2048.0" stroke="#000000FF" />
	<line x1="608.0" y1="0.0" x2="2048.0" y2="1440.0" stroke="#000000FF" />
	<line x1="0.0" y1="640.0" x2="1408.0" y2="2048.0" stroke="#000000FF" />
	<line x1="640.0" y1="0.0" x2="2048.0" y2="1408.0" stroke="#000000FF" />
	<line x1="0.0" y1="672.0" x2="1376.0" y2="2048.0" stroke="#000000FF" />
	<line x1="672.0" y1="0.0" x2="2048.0" y2="1376.0" stroke="#000000FF" />
	<line x1="0.0" y1="704.0" x2="1344.0" y2="2048.0" stroke="#000000FF" />
	<line x1="704.0" y1="0.0" x2="2048.0" y2="1344.0" stroke="#000000FF" />
	<line x1="0.0" y1="736.0" x2="1312.0" y2="2048.0" stroke="#000000FF" />
	<line x1="736.0" y1="0.0" x2="2048.0" y2="1312.0" stroke="#000000FF" />
	<line x1="0.0" y1="768.0" x2="1280.0" y2="2048.0" stroke="#000000FF" />
	<line x1="768.0" y1="0.0" x2="2048.0" y2="1280.0" stroke="#000000FF" />
	<line x1="0.0" y1="800.0" x2="1248.0" y2="2048.0" stroke="#000000FF" />
	<line x1="800.0" y1="0.0" x2="2048.0" y2="1248.0" stroke="#000000FF" />
	<line x1="0.0" y1="832.0" x2="1216.0" y2="2048.0" stroke="#000000FF" />
	<line x1="832.0" y1="0.0" x2="2048.0" y2="1216.0" stroke="#000000FF" />
	<line x1="0.0" y1="864.0" x2="1184.0" y2="2048.0" stroke="#000000FF" />
	<line x1="864.0" y1="0.0" x2="2048.0" y2="1184.0" stroke="#000000FF" />
	<line x1="0.0" y1="896.0" x2="1152.0" y2="2048.0" stroke="#000000FF" />
	<line x1="896.0" y1="0.0" x2="2048.0" y2="1152.0" stroke="#000000FF" />
	<line x1="0.0" y1="928.0" x2="1120.0" y2="2048.0" stroke="#000000FF" />
	<line x1="928.0" y1="0.0" x2="2048.0" y2="1120.0" stroke="#000000FF" />
	<line x1="0.0" y1="960.0" x2="1088.0" y2="2048.0" stroke="#000000FF" />
	<line x1="960.0" y1="0.0" x2="2048.0" y2="1088.0" stroke="#000000FF" />
	<line x1="0.0" y1="992.0" x2="1056.0" y2="2048.0" stroke="#000000FF" />
	<line x1="992.0" y1="0.0" x2="2048.0" y2="1056.0" stroke="#000000FF" />
	<line x1="0.0" y1="1024.0" x2="1024.0" y2="2048.0" stroke="#000000FF" />
	<line x1="1024.0" y1="0.0" x2="2048.0" y2="1024.0" stroke="#000000FF" />
	<line x1="0.0" y1="1056.0" x2="992.0" y2="2048.0" stroke="#000000FF" />
	<line x1="1056.0" y1="0.0" x2="2048.0" y2="992.0" stroke="#000000FF" />
	<line x1="0.0" y1="1088.0" x2="960.0" y2="2048.0" stroke="#000000FF" />
	<line x1="1088.0" y1="0.0" x2="2048.0" y2="960.0" stroke="#000000FF" />
	<line x1="0.0" y1="1120.0" x2="928.0" y2="2048.0" stroke="#000000FF" />
	<line x1="1120.0" y1="0.0" x2="2048.0" y2="928.0" stroke="#000000FF" />
	<line x1="0.0" y1="1152.0" x2="896.0" y2="2048.0" stroke="#000000FF" />
	<line x1="1152.0" y1="0.0" x2="2048.0" y2="896.0" stroke="#000000FF" />
	<line x1="0.0" y1="1184.0" x2="864.0" y2="2048.0" stroke="#000000FF" />
	<line x1="1184.0" y1="0.0" x2="2048.0" y2="864.0" stroke="#000000FF" />
	<line x1="0.0" y1="1216.0" x2="832.0" y2="2048.0" stroke="#000000FF" />
	<line x1="1216.0" y1="0.0" x2="2048.0" y2="832.0" stroke="#000000FF" />
	<line x1="0.0" y1="1248.0" x2="800.0" y2="2048.0" stroke="#000000FF" />
	<line x1="1248.0" y1="0.0" x2="2048.0" y2="800.0" stroke="#000000FF" />
	<line x1="0.0" y1="1280.0" x2="768.0" y2="2048.0" stroke="#000000FF" />
	<line x1="1280.0" y1="0.0" x2="2048.0" y2="768.0" stroke="#000000FF" />
	<line x1="0.0" y1="1312.0" x2="736.0" y2="2048.0" stroke="#000000FF" />
	<line x1="1312.0" y1="0.0" x2="2048.0" y2="736.0" stroke="#000000FF" />
	<line x1="0.0" y1="1344.0" x2="704.0" y2="2048.0" stroke="#000000FF" />
	<line x1="1344.0" y1="0.0" x2="2048.0" y2="704.0" stroke="#000000FF" />
	<line x1="0.0" y1="1376.0" x2="672.0" y2="2048.0" stroke="#000000FF" />
	<line x1="1376.0" y1="0.0" x2="2048.0" y2="672.0" stroke="#000000FF" />
	<line x1="0.0" y1="1408.0" x2="640.0" y2="2048.0" stroke="#000000FF" />
	<line x1="1408.0" y1="0.0" x2="2048.0" y2="640.0" stroke="#000000FF" />
	<line x1="0.0" y1="1440.0" x2="608.0" y2="2048.0" stroke="#000000FF" />
	<line x1="1440.0" y1="0.0" x2="2048.0" y2="608.0" stroke="#000000FF" />
	<line x1="0.0" y1="1472.0" x2="576.0" y2="2048.0" stroke="#000000FF" />
	<line x1="1472.0" y1="0.0" x2="2048.0" y2="576.0" stroke="#000000FF" />
	<line x1="0.0" y1="1504.0" x2="544.0" y2="2048.0" stroke="#000000FF" />
	<line x1="1504.0" y1="0.0" x2="2048.0" y2="544.0" stroke="#000000FF" />
	<line x1="0.0" y1="1536.0" x2="512.0" y2="2048.0" stroke="#000000FF" />
	<line x1="1536.0" y1="0.0" x2="2048.0" y2="512.0" stroke="#000000FF" />
	<line x1="0.0" y1="1568.0" x2="480.0" y2="2048.0" stroke="#000000FF" />
	<line x1="1568.0" y1="0.0" x2="2048.0" y2="480.0" stroke="#000000FF" />
	<line x1="0.0" y1="1600.0" x2="448.0" y2="2048.0" stroke="#000000FF" />
	<line x1="1600.0" y1="0.0" x2="2048.0" y2="448.0" stroke="#000000FF" />
	<line x1="0.0" y1="1632.0" x2="416.0" y2="2048.0" stroke="#000000FF" />
	<line x1="1632.0" y1="0.0" x2="2048.0" y2="416.0" stroke="#000000FF" />
	<line x1="0.0" y1="1664.0" x2="384.0" y2="2048.0" stroke="#000000FF" />
	<line x1="1664.0" y1="0.0" x2="2048.0" y2="384.0" stroke="#000000FF" />
	<line x1="0.0" y1="1696.0" x2="352.0" y2="2048.0" stroke="#000000FF" />
	<line x1="1696.0" y1="0.0" x2="2048.0" y2="352.0" stroke="#000000FF" />
	<line x1="0.0" y1="1728.0" x2="320.0" y2="2048.0" stroke="#000000FF" />
	<line x1="1728.0" y1="0.0" x2="2048.0" y2="320.0" stroke="#000000FF" />
	<line x1="0.0" y1="1760.0" x2="288.0" y2="2048.0" stroke="#000000FF" />
	<line x1="1760.0" y1="0.0" x2="2048.0" y2="288.0" stroke="#000000FF" />
	<line x1="0.0" y1="1792.0" x2="256.0" y2="2048.0" stroke="#000000FF" />
	<line x1="1792.0" y1="0.0" x2="2048.0" y2="256.0" stroke="#000000FF" />
	<line x1="0.0" y1="1824.0" x2="224.0" y2="2048.0" stroke="#000000FF" />
	<line x1="1824.0" y1="0.0" x2="2048.0" y2="224.0" stroke="#000000FF" />
	<line x1="0.0" y1="1856.0" x2="192.0" y2="2048.0" stroke="#000000FF" />
	<line x1="1856.0" y1="0.0" x2="2048.0" y2="192.0" stroke="#000000FF" />
	<line x1="0.0" y1="1888.0" x2="160.0" y2="2048.0" stroke="#000000FF" />
	<line x1="1888.0" y1="0.0" x2="2048.0" y2="160.0" stroke="#000000FF" />
	<line x1="0.0" y1="1920.0" x2="128.0" y2="2048.0" stroke="#000000FF" />
	<line x1="1920.0" y1="0.0" x2="2048.0" y2="128.0" stroke="#000000FF" />
	<line x1="0.0" y1="1952.0" x2="96.0" y2="2048.0" stroke="#000000FF" />
	<line x1="1952.0" y1="0.0" x2="2048.0" y2="96.0" stroke="#000000FF" />
	<line x1="0.0" y1="1984.0" x2="64.0" y2="2048.0" stroke="#000000FF" />
	<line x1="1984.0" y1="0.0" x2="2048.0" y2="64.0" stroke="#000000FF" />
	<line x1="0.0" y1="2016.0" x2="32.0" y2="2048.0" stroke="#000000FF" />
	<line x1="2016.0" y1="0.0" x2="2048.0" y2="32.0" stroke="#000000FF" />
	<line x1="2048.0" y1="0.0" x2="0.0" y2="2048.0" stroke="#000000FF" />
	<line x1="2016.0" y1="0.0" x2="0.0" y2="2016.0" stroke="#000000FF" />
	<line x1="2048.0" y1="32.0" x2="32.0" y2="2048.0" stroke="#000000FF" />
	<line x1="1984.0" y1="0.0" x2="0.0" y2="1984.0" stroke="#000000FF" />
	<line x1="2048.0" y1="64.0" x2="64.0" y2="2048.0" stroke="#000000FF" />
	<line x1="1952.0" y1="0.0" x2="0.0" y2="1952.0" stroke="#000000FF" />
	<line x1="2048.0" y1="96.0" x2="96.0" y2="2048.0" stroke="#000000FF" />
	<line x1="1920.0" y1="0.0" x2="0.0" y2="1920.0" stroke="#000000FF" />
	<line x1="2048.0" y1="128.0" x2="128.0" y2="2048.0" stroke="#000000FF" />
	<line x1="1888.0" y1="0.0" x2="0.0" y2="1888.0" stroke="#000000FF" />
	<line x1="2048.0" y1="160.0" x2="160.0" y2="2048.0" stroke="#000000FF" />
	<line x1="1856.0" y1="0.0" x2="0.0" y2="1856.0" stroke="#000000FF" />
	<line x1="2048.0" y1="192.0" x2="192.0" y2="2048.0" stroke="#000000FF" />
	<line x1="1824.0" y1="0.0" x2="0.0" y2="1824.0" stroke="#000000FF" />
	<line x1="2048.0" y1="224.0" x2="224.0" y2="2048.0" stroke="#000000FF" />
	<line x1="1792.0" y1="0.0" x2="0.0" y2="1792.0" stroke="#000000FF" />
	<line x1="2048.0" y1="256.0" x2="256.0" y2="2048.0" stroke="#000000FF" />
	<line x1="1760.0" y1="0.0" x2="0.0" y2="1760.0" stroke="#000000FF" />
	<line x1="2048.0" y1="288.0" x2="288.0" y2="2048.0" stroke="#000000FF" />
	<line x1="1728.0" y1="0.0" x2="0.0" y2="1728.0" stroke="#000000FF" />
	<line x1="2048.0" y1="320.0" x2="320.0" y2="2048.0" stroke="#000000FF" />
	<line x1="1696.0" y1="0.0" x2="0.0" y2="1696.0" stroke="#000000FF" />
	<line x1="2048.0" y1="352.0" x2="352.0" y2="2048.0" stroke="#000000FF" />
	<line x1="1664.0" y1="0.0" x2="0.0" y2="1664.0" stroke="#000000FF" />
	<line x1="2048.0" y1="384.0" x2="384.0" y2="2048.0" stroke="#000000FF" />
	<line x1="1632.0" y1="0.0" x2="0.0" y2="1632.0" stroke="#000000FF" />
	<line x1="2048.0" y1="416.0" x2="416.0" y2="2048.0" stroke="#000000FF" />
	<line x1="1600.0" y1="0.0" x2="0.0" y2="1600.0" stroke="#000000FF" />
	<line x1="2048.0" y1="448.0" x2="448.0" y2="2048.0" stroke="#000000FF" />
	<line x1="1568.0" y1="0.0" x2="0.0" y2="1568.0" stroke="#000000FF" />
	<line x1="2048.0" y1="480.0" x2="480.0" y2="2048.0" stroke="#000000FF" />
	<line x1="1536.0" y1="0.0" x2="0.0" y2="1536.0" stroke="#000000FF" />
	<line x1="2048.0" y1="512.0" x2="512.0" y2="2048.0" stroke="#000000FF" />
	<line x1="1504.0" y1="0.0" x2="0.0" y2="1504.0" stroke="#000000FF" />
	<line x1="2048.0" y1="544.0" x2="544.0" y2="2048.0" stroke="#000000FF" />
	<line x1="1472.0" y1="0.0" x2="0.0" y2="1472.0" stroke="#000000FF" />
	<line x1="2048.0" y1="576.0" x2="576.0" y2="2048.0" stroke="#000000FF" />
	<line x1="1440.0" y1="0.0" x2="0.0" y2="1440.0" stroke="#000000FF" />
	<line x1="2048.0" y1="608.0" x2="608.0" y2="2048.0" stroke="#000000FF" />
	<line x1="1408.0" y1="0.0" x2="0.0" y2="1408.0" stroke="#000000FF" />
	<line x1="2048.0" y1="640.0" x2="640.0" y2="2048.0" stroke="#000000FF" />
	<line x1="1376.0" y1="0.0" x2="0.0" y2="1376.0" stroke="#000000FF" />
	<line x1="2048.0" y1="672.0" x2="672.0" y2="2048.0" stroke="#000000FF" />
	<line x1="1344.0" y1="0.0" x2="0.0" y2="1344.0" stroke="#000000FF" />
	<line x1="2048.0" y1="704.0" x2="704.0" y2="2048.0" stroke="#000000FF" />
	<line x1="1312.0" y1="0.0" x2="0.0" y2="1312.0" stroke="#000000FF" />
	<line x1="2048.0" y1="736.0" x2="736.0" y2="2048.0" stroke="#000000FF" />
	<line x1="1280.0" y1="0.0" x2="0.0" y2="1280.0" stroke="#000000FF" />
	<line x1="2048.0" y1="768.0" x2="768.0" y2="2048.0" stroke="#000000FF" />
	<line x1="1248.0" y1="0.0" x2="0.0" y2="1248.0" stroke="#000000FF" />
	<line x1="2048.0" y1="800.0" x2="800.0" y2="2048.0" stroke="#000000FF" />
	<line x1="1216.0" y1="0.0" x2="0.0" y2="1216.0" stroke="#000000FF" />
	<line x1="2048.0" y1="832.0" x2="832.0" y2="2048.0" stroke="#000000FF" />
	<line x1="1184.0" y1="0.0" x2="0.0" y2="1184.0" stroke="#000000FF" />
	<line x1="2048.0" y1="864.0" x2="864.0" y2="2048.0" stroke="#000000FF" />
	<line x1="1152.0" y1="0.0" x2="0.0" y2="1152.0" stroke="#000000FF" />
	<line x1="2048.0" y1="896.0" x2="896.0" y2="2048.0" stroke="#000000FF" />
	<line x1="1120.0" y1="0.0" x2="0.0" y2="1120.0" stroke="#000000FF" />
	<line x1="2048.0" y1="928.0" x2="928.0" y2="2048.0" stroke="#000000FF" />
	<line x1="1088.0" y1="0.0" x2="0.0" y2="1088.0" stroke="#000000FF" />
	<line x1="2048.0" y1="960.0" x2="960.0" y2="2048.0" stroke="#000000FF" />
	<line x1="1056.0" y1="0.0" x2="0.0" y2="1056.0" stroke="#000000FF" />
	<line x1="2048.0" y1="992.0" x2="992.0" y2="2048.0" stroke="#000000FF" />
	<line x1="1024.0" y1="0.0" x2="0.0" y2="1024.0" stroke="#000000FF" />
	<line x1="2048.0" y1="1024.0" x2="1024.0" y2="2048.0" stroke="#000000FF" />
	<line x1="992.0" y1="0.0" x2="0.0" y2="992.0" stroke="#000000FF" />
	<line x1="2048.0" y1="1056.0" x2="1056.0" y2="2048.0" stroke="#000000FF" />
	<line x1="960.0" y1="0.0" x2="0.0" y2="960.0" stroke="#000000FF" />
	<line x1="2048.0" y1="1088.0" x2="1088.0" y2="2048.0" stroke="#000000FF" />
	<line x1="928.0" y1="0.0" x2="0.0" y2="928.0" stroke="#000000FF" />
	<line x1="2048.0" y1="1120.0" x2="1120.0" y2="2048.0" stroke="#000000FF" />
	<line x1="896.0" y1="0.0" x2="0.0" y2="896.0" stroke="#000000FF" />
	<line x1="2048.0" y1="1152.0" x2="1152.0" y2="2048.0" stroke="#000000FF" />
	<line x1="864.0" y1="0.0" x2="0.0" y2="864.0" stroke="#000000FF" />
	<line x1="2048.0" y1="1184.0" x2="1184.0" y2="2048.0" stroke="#000000FF" />
	<line x1="832.0" y1="0.0" x2="0.0" y2="832.0" stroke="#000000FF" />
	<line x1="2048.0" y1="1216.0" x2="1216.0" y2="2048.0" stroke="#000000FF" />
	<line x1="800.0" y1="0.0" x2="0.0" y2="800.0" stroke="#000000FF" />
	<line x1="2048.0" y1="1248.0" x2="1248.0" y2="2048.0" stroke="#000000FF" />
	<line x1="768.0" y1="0.0" x2="0.0" y2="768.0" stroke="#000000FF" />
	<line x1="2048.0" y1="1280.0" x2="1280.0" y2="2048.0" stroke="#000000FF" />
	<line x1="736.0" y1="0.0" x2="0.0" y2="736.0" stroke="#000000FF" />
	<line x1="2048.0" y1="1312.0" x2="1312.0" y2="2048.0" stroke="#000000FF" />
	<line x1="704.0" y1="0.0" x2="0.0" y2="704.0" stroke="#000000FF" />
	<line x1="2048.0" y1="1344.0" x2="1344.0" y2="2048.0" stroke="#000000FF" />
	<line x1="672.0" y1="0.0" x2="0.0" y2="672.0" stroke="#000000FF" />
	<line x1="2048.0" y1="1376.0" x2="1376.0" y2="2048.0" stroke="#000000FF" />
	<line x1="640.0" y1="0.0" x2="0.0" y2="640.0" stroke="#000000FF" />
	<line x1="2048.0" y1="1408.0" x2="1408.0" y2="2048.0" stroke="#000000FF" />
	<line x1="608.0" y1="0.0" x2="0.0" y2="608.0" stroke="#000000FF" />
	<line x1="2048.0" y1="1440.0" x2="1440.0" y2="2048.0" stroke="#000000FF" />
	<line x1="576.0" y1="0.0" x2="0.0" y2="576.0" stroke="#000000FF" />
	<line x1="2048.0" y1="1472.0" x2="1472.0" y2="2048.0" stroke="#000000FF" />
	<line x1="544.0" y1="0.0" x2="0.0" y2="544.0" stroke="#000000FF" />
	<line x1="2048.0" y1="1504.0" x2="1504.0" y2="2048.0" stroke="#000000FF" />
	<line x1="512.0" y1="0.0" x2="0.0" y2="512.0" stroke="#000000FF" />
	<line x1="2048.0" y1="1536.0" x2="1536.0" y2="2048.0" stroke="#000000FF" />
	<line x1="480.0" y1="0.0" x2="0.0" y2="480.0" stroke="#000000FF" />
	<line x1="2048.0" y1="1568.0" x2="1568.0" y2="2048.0" stroke="#000000FF" />
	<line x1="448.0" y1="0.0" x2="0.0" y2="448.0" stroke="#000000FF" />
	<line x1="2048.0" y1="1600.0" x2="1600.0" y2="2048.0" stroke="#000000FF" />
	<line x1="416.0" y1="0.0" x2="0.0" y2="416.0" stroke="#000000FF" />
	<line x1="2048.0" y1="1632.0" x2="1632.0" y2="2048.0" stroke="#000000FF" />
	<line x1="384.0" y1="0.0" x2="0.0" y2="384.0" stroke="#000000FF" />
	<line x1="2048.0" y1="1664.0" x2="1664.0" y2="2048.0" stroke="#000000FF" />
	<line x1="352.0" y1="0.0" x2="0.0" y2="352.0" stroke="#000000FF" />
	<line x1="2048.0" y1="1696.0" x2="1696.0" y2="2048.0" stroke="#000000FF" />
	<line x1="320.0" y1="0.0" x2="0.0" y2="320.0" stroke="#000000FF" />
	<line x1="2048.0" y1="1728.0" x2="1728.0" y2="2048.0" stroke="#000000FF" />
	<line x1="288.0" y1="0.0" x2="0.0" y2="288.0" stroke="#000000FF" />
	<line x1="2048.0" y1="1760.0" x2="1760.0" y2="2048.0" stroke="#000000FF" />
	<line x1="256.0" y1="0.0" x2="0.0" y2="256.0" stroke="#000000FF" />
	<line x1="2048.0" y1="1792.0" x2="1792.0" y2="2048.0" stroke="#000000FF" />
	<line x1="224.0" y1="0.0" x2="0.0" y2="224.0" stroke="#000000FF" />
	<line x1="2048.0" y1="1824.0" x2="1824.0" y2="2048.0" stroke="#000000FF" />
	<line x1="192.0" y1="0.0" x2="0.0" y2="192.0" stroke="#000000FF" />
	<line x1="2048.0" y1="1856.0" x2="1856.0" y2="2048.0" stroke="#000000FF" />
	<line x1="160.0" y1="0.0" x2="0.0" y2="160.0" stroke="#000000FF" />
	<line x1="2048.0" y1="1888.0" x2="1888.0" y2="2048.0" stroke="#000000FF" />
	<line x1="128.0" y1="0.0" x2="0.0" y2="128.0" stroke="#000000FF" />
	<line x1="2048.0" y1="1920.0" x2="1920.0" y2="2048.0" stroke="#000000FF" />
	<line x1="96.0" y1="0.0" x2="0.0" y2="96.0" stroke="#000000FF" />
	<line x1="2048.0" y1="1952.0" x2="1952.0" y2="2048.0" stroke="#000000FF" />
	<line x1="64.0" y1="0.0" x2="0.0" y2="64.0" stroke="#000000FF" />
	<line x1="2048.0" y1="1984.0" x2="1984.0" y2="2048.0" stroke="#000000FF" />
	<line x1="32.0" y1="0.0" x2="0.0" y2="32.0" stroke="#000000FF" />
	<line x1="2048.0" y1="2016.0" x2="2016.0" y2="2048.0" stroke="#000000FF" />
</svg>