<svg xmlns="http://www.w3.org/2000/svg" width="2080" height="2080" viewBox="-16 -16 2080 2080" n="5" stroke-linecap="round" stroke-linejoin="round" stroke-width="4">
	<rect x="-16" y="-16" width="2080" height="2080" fill="#FFFFFFFF" opacity="1"/>
	<line x1="0.0" y1="0.0" x2="2048.0" y2="0.0" stroke="#000000FF" />
	<line x1="0.0" y1="128.0" x2="2048.0" y2="128.0" stroke="#000000FF" />
	<line x1="0.0" y1="256.0" x2="2048.0" y2="256.0" stroke="#000000FF" />
	<line x1="0.0" y1="384.0" x2="2048.0" y2="384.0" stroke="#000000FF" />
	<line x1="0.0" y1="512.0" x2="2048.0" y2="512.0" stroke="#000000FF" />
	<line x1="0.0" y1="640.0" x2="2048.0" y2="640.0" stroke="#000000FF" />
	<line x1="0.0" y1="768.0" x2="2048.0" y2="768.0" stroke="#000000FF" />
	<line x1="0.0" y1="896.0" x2="2048.0" y2="896.0" stroke="#000000FF" />
	<line x1="0.0" y1="1024.0" x2="2048.0" y2="1024.0" stroke="#000000FF" />
	<line x1="0.0" y1="1152.0" x2="2048.0" y2="1152.0" stroke="#000000FF" />
	<line x1="0.0" y1="1280.0" x2="2048.0" y2="1280.0" stroke="#000000FF" />
	<line x1="0.0" y1="1408.0" x2="2048.0" y2="1408.0" stroke="#000000FF" />
	<line x1="0.0" y1="1536.0" x2="2048.0" y2="1536.0" stroke="#000000FF" />
	<line x1="0.0" y1="1664.0" x2="2048.0" y2="1664.0" stroke="#000000FF" />
	<line x1="0.0" y1="1792.0" x2="2048.0" y2="1792.0" stroke="#000000FF" />
	<line x1="0.0" y1="1920.0" x2="2048.0" y2="1920.0" stroke="#000000FF" />
	<line x1="0.0" y1="2048.0" x2="2048.0" y2="2048.0" stroke="#000000FF" />
	<line x1="0.0" y1="0.0" x2="0.0" y2="2048.0" stroke="#000000FF" />
	<line x1="128.0" y1="0.0" x2="128.0" y2="2048.0" stroke="#000000FF" />
	<line x1="256.0" y1="0.0" x2="256.0" y2="2048.0" stroke="#000000FF" />
	<line x1="384.0" y1="0.0" x2="384.0" y2="2048.0" stroke="#000000FF" />
	<line x1="512.0" y1="0.0" x2="512.0" y2="2048.0" stroke="#000000FF" />
	<line x1="640.0" y1="0.0" x2="640.0" y2="2048.0" stroke="#000000FF" />
	<line x1="768.0" y1="0.0" x2="768.0" y2="2048.0" stroke="#000000FF" />
	<line x1="896.0" y1="0.0" x2="896.0" y2="2048.0" stroke="#000000FF" />
	<line x1="1024.0" y1="0.0" x2="1024.0" y2="2048.0" stroke="#000000FF" />
	<line x1="1152.0" y1="0.0" x2="1152.0" y2="2048.0" stroke="#000000FF" />
	<line x1="1280.0" y1="0.0" x2="1280.0" y2="2048.0" stroke="#000000FF" />
	<line x1="1408.0" y1="0.0" x2="1408.0" y2="2048.0" stroke="#000000FF" />
	<line x1="1536.0" y1="0.0" x2="1536.0" y2="2048.0" stroke="#000000FF" />
	<line x1="1664.0" y1="0.0" x2="1664.0" y2="2048.0" stroke="#000000FF" />
	<line x1="1792.0" y1="0.0" x2="1792.0" y2="2048.0" stroke="#000000FF" />
	<line x1="1920.0" y1="0.0" x2="1920.0" y2="2048.0" stroke="#000000FF" />
	<line x1="2048.0" y1="0.0" x2="2048.0" y2="2048.0" stroke="#000000FF" />
	<line x1="0.0" y1="0.0" x2="2048.0" y2="2048.0" stroke="#000000FF" />
	<line x1="0.0" y1="128.0" x2="1920.0" y2="2048.0" stroke="#000000FF" />
	<line x1="128.0" y1="0.0" x2="2048.0" y2="1920.0" stroke="#000000FF" />
	<line x1="0.0" y1="256.0" x2="1792.0" y2="2048.0" stroke="#000000FF" />
	<line x1="256.0" y1="0.0" x2="2048.0" y2="1792.0" stroke="#000000FF" />
	<line x1="0.0" y1="384.0" x2="1664.0" y2="2048.0" stroke="#000000FF" />
	<line x1="384.0" y1="0.0" x2="2048.0" y2="1664.0" stroke="#000000FF" />
	<line x1="0.0" y1="512.0" x2="1536.0" y2="2048.0" stroke="#000000FF" />
	<line x1="512.0" y1="0.0" x2="2048.0" y2="1536.0" stroke="#000000FF" />
	<line x1="0.0" y1="640.0" x2="1408.0" y2="2048.0" stroke="#000000FF" />
	<line x1="640.0" y1="0.0" x2="2048.0" y2="1408.0" stroke="#000000FF" />
	<line x1="0.0" y1="768.0" x2="1280.0" y2="2048.0" stroke="#000000FF" />
	<line x1="768.0" y1="0.0" x2="2048.0" y2="1280.0" stroke="#000000FF" />
	<line x1="0.0" y1="896.0" x2="1152.0" y2="2048.0" stroke="#000000FF" />
	<line x1="896.0" y1="0.0" x2="2048.0" y2="1152.0" stroke="#000000FF" />
	<line x1="0.0" y1="1024.0" x2="1024.0" y2="2048.0" stroke="#000000FF" />
	<line x1="1024.0" y1="0.0" x2="2048.0" y2="1024.0" stroke="#000000FF" />
	<line x1="0.0" y1="1152.0" x2="896.0" y2="2048.0" stroke="#000000FF" />
	<line x1="1152.0" y1="0.0" x2="2048.0" y2="896.0" stroke="#000000FF" />
	<line x1="0.0" y1="1280.0" x2="768.0" y2="2048.0" stroke="#000000FF" />
	<line x1="1280.0" y1="0.0" x2="2048.0" y2="768.0" stroke="#000000FF" />
	<line x1="0.0" y1="1408.0" x2="640.0" y2="2048.0" stroke="#000000FF" />
	<line x1="1408.0" y1="0.0" x2="2048.0" y2="640.0" stroke="#000000FF" />
	<line x1="0.0" y1="1536.0" x2="512.0" y2="2048.0" stroke="#000000FF" />
	<line x1="1536.0" y1="0.0" x2="2048.0" y2="512.0" stroke="#000000FF" />
	<line x1="0.0" y1="1664.0" x2="384.0" y2="2048.0" stroke="#000000FF" />
	<line x1="1664.0" y1="0.0" x2="2048.0" y2="384.0" stroke="#000000FF" />
	<line x1="0.0" y1="1792.0" x2="256.0" y2="2048.0" stroke="#000000FF" />
	<line x1="1792.0" y1="0.0" x2="2048.0" y2="256.0" stroke="#000000FF" />
	<line x1="0.0" y1="1920.0" x2="128.0" y2="2048.0" stroke="#000000FF" />
	<line x1="1920.0" y1="0.0" x2="2048.0" y2="128.0" stroke="#000000FF" />
	<line x1="2048.0" y1="0.0" x2="0.0" y2="2048.0" stroke="#000000FF" />
	<line x1="1920.0" y1="0.0" x2="0.0" y2="1920.0" stroke="#000000FF" />
	<line x1="2048.0" y1="128.0" x2="128.0" y2="2048.0" stroke="#000000FF" />
	<line x1="1792.0" y1="0.0" x2="0.0" y2="1792.0" stroke="#000000FF" />
	<line x1="2048.0" y1="256.0" x2="256.0" y2="2048.0" stroke="#000000FF" />
	<line x1="1664.0" y1="0.0" x2="0.0" y2="1664.0" stroke="#000000FF" />
	<line x1="2048.0" y1="384.0" x2="384.0" y2="2048.0" stroke="#000000FF" />
	<line x1="1536.0" y1="0.0" x2="0.0" y2="1536.0" stroke="#000000FF" />
	<line x1="2048.0" y1="512.0" x2="512.0" y2="2048.0" stroke="#000000FF" />
	<line x1="1408.0" y1="0.0" x2="0.0" y2="1408.0" stroke="#000000FF" />
	<line x1="2048.0" y1="640.0" x2="640.0" y2="2048.0" stroke="#000000FF" />
	<line x1="1280.0" y1="0.0" x2="0.0" y2="1280.0" stroke="#000000FF" />
	<line x1="2048.0" y1="768.0" x2="768.0" y2="2048.0" stroke="#000000FF" />
	<line x1="1152.0" y1="0.0" x2="0.0" y2="1152.0" stroke="#000000FF" />
	<line x1="2048.0" y1="896.0" x2="896.0" y2="2048.0" stroke="#000000FF" />
	<line x1="1024.0" y1="0.0" x2="0.0" y2="1024.0" stroke="#000000FF" />
	<line x1="2048.0" y1="1024.0" x2="1024.0" y2="2048.0" stroke="#000000FF" />
	<line x1="896.0" y1="0.0" x2="0.0" y2="896.0" stroke="#000000FF" />
	<line x1="2048.0" y1="1152.0" x2="1152.0" y2="2048.0" stroke="#000000FF" />
	<line x1="768.0" y1="0.0" x2="0.0" y2="768.0" stroke="#000000FF" />
	<line x1="2048.0" y1="1280.0" x2="1280.0" y2="2048.0" stroke="#000000FF" />
	<line x1="640.0" y1="0.0" x2="0.0" y2="640.0" stroke="#000000FF" />
	<line x1="2048.0" y1="1408.0" x2="1408.0" y2="2048.0" stroke="#000000FF" />
	<line x1="512.0" y1="0.0" x2="0.0" y2="512.0" stroke="#000000FF" />
	<line x1="2048.0" y1="1536.0" x2="1536.0" y2="2048.0" stroke="#000000FF" />
	<line x1="384.0" y1="0.0" x2="0.0" y2="384.0" stroke="#000000FF" />
	<line x1="2048.0" y1="1664.0" x2="1664.0" y2="2048.0" stroke="#000000FF" />
	<line x1="256.0" y1="0.0" x2="0.0" y2="256.0" stroke="#000000FF" />
	<line x1="2048.0" y1="1792.0" x2="1792.0" y2="2048.0" stroke="#000000FF" />
	<line x1="128.0" y1="0.0" x2="0.0" y2="128.0" stroke="#000000FF" />
	<line x1="2048.0" y1="1920.0" x2="1920.0" y2="2048.0" stroke="#000000FF" />
</svg>